<svg xmlns="http://www.w3.org/2000/svg" viewBox="0 0 1200 630" width="1200" height="630">
  <defs>
    <radialGradient id="bg" cx="72%" cy="18%" r="95%">
      <stop offset="0" stop-color="#24385A"/>
      <stop offset="45%" stop-color="#1B2A40"/>
      <stop offset="100%" stop-color="#0E1828"/>
    </radialGradient>
    <radialGradient id="sun" cx="50%" cy="50%" r="50%">
      <stop offset="0" stop-color="#C9A84C" stop-opacity="0.30"/>
      <stop offset="65%" stop-color="#C9A84C" stop-opacity="0.06"/>
      <stop offset="100%" stop-color="#C9A84C" stop-opacity="0"/>
    </radialGradient>
  </defs>
  <rect width="1200" height="630" fill="url(#bg)"/>
  <circle cx="980" cy="150" r="300" fill="url(#sun)"/>
  <rect x="0" y="0" width="1200" height="630" fill="none" stroke="#C9A84C" stroke-opacity="0.45" stroke-width="2" rx="0"/>
  <!-- amphora -->
  <g transform="translate(120,118) scale(1.92)">
    <path d="M51 30 C49 38 49 45 52 51 C41 57 32 72 32 94 C32 118 45 140 60 148 C75 140 88 118 88 94 C88 72 79 57 68 51 C71 45 71 38 69 30 Z" fill="#C9A84C" fill-opacity="0.14"/>
    <g fill="none" stroke="#C9A84C" stroke-width="3" stroke-linecap="round" stroke-linejoin="round">
      <ellipse cx="60" cy="28" rx="15" ry="5"/>
      <path d="M51 30 C49 38 49 45 52 51 C41 57 32 72 32 94 C32 118 45 140 60 148 C75 140 88 118 88 94 C88 72 79 57 68 51 C71 45 71 38 69 30 Z"/>
      <path d="M51 36 C37 35 27 49 35 66"/>
      <path d="M69 36 C83 35 93 49 85 66"/>
      <ellipse cx="60" cy="150" rx="11" ry="4"/>
    </g>
  </g>
  <!-- text -->
  <text x="372" y="196" font-family="Arial, Helvetica, sans-serif" font-size="20" letter-spacing="5" fill="#D9BD6F">ПРЕМИАЛЬНЫЙ ИТАЛЬЯНСКИЙ DMC</text>
  <text x="368" y="300" font-family="Georgia, 'Times New Roman', serif" font-size="96" fill="#F5EDD6">Gusto <tspan font-style="italic" fill="#D9BD6F">Giusto</tspan></text>
  <text x="372" y="372" font-family="Georgia, 'Times New Roman', serif" font-size="34" fill="#EBE0C0">Для туроператоров России, СНГ</text>
  <text x="372" y="416" font-family="Georgia, 'Times New Roman', serif" font-size="34" fill="#EBE0C0">и русскоязычного рынка</text>
  <rect x="372" y="446" width="120" height="3" fill="#C9A84C"/>
  <text x="372" y="492" font-family="Arial, Helvetica, sans-serif" font-size="22" letter-spacing="2" fill="#D9BD6F">RU · IT · EN  ·  Москва · Санкт-Петербург</text>
</svg>
